OpenSim_Sub02_CSBaseline_RCS.mot
version=1
nRows=33
nColumns=11
inDegrees=no
endheader
time	Top_Thigh	Med_Thigh	Bot_Thigh	Top_Shank	2nd_Top_Shank	2nd_Bot_Shank	Bot_Shank	BNOx	BNOy	BNOZ
0	12835.40062815	13539.43757156	13881.34491200	1120.03574216	1227.64233863	1020.83127513	1005.36824510	24.17478158	-78.98199213	157.35750596
0.01000000	12832.70368396	13544.06197509	13882.43009699	1120.02451123	1227.71305090	1020.96468424	1005.65742080	24.19759264	-78.96923320	157.37774682
0.02000000	12828.40121806	13550.27239026	13883.46940477	1120.01206694	1227.82779697	1021.03120506	1005.87647356	24.22214601	-78.95604613	157.38578633
0.03000000	12823.06490894	13557.57151726	13884.43670166	1120.00094235	1227.98249080	1021.00811284	1005.99487167	24.24746382	-78.94155463	157.38117436
0.04000000	12817.29830218	13565.43546478	13885.30614314	1119.99328044	1228.17135391	1020.88019431	1005.98996624	24.27284464	-78.92500429	157.36338063
0.05000000	12811.70494339	13573.34034148	13886.05188470	1119.98911441	1228.37945383	1020.67286396	1005.88174494	24.29908206	-78.90630001	157.33144148
0.06000000	12806.88837817	13580.76225605	13886.64808182	1119.98776742	1228.58877737	1020.42520941	1005.70454455	24.32747283	-78.88556860	157.28424741
0.07000000	12803.45099161	13587.17827612	13887.06911814	1119.98856211	1228.78130900	1020.17632859	1005.49271269	24.35931407	-78.86293703	157.22068880
0.08000000	12801.74914341	13592.26876861	13887.33774714	1119.99082110	1228.93903320	1019.96531941	1005.28059697	24.39590292	-78.83853225	157.13965603
0.09000000	12801.59027804	13596.16768803	13887.58464179	1119.99386703	1229.04393447	1019.83127978	1005.10254498	24.43853648	-78.81248125	157.04003948
0.10000000	12802.70756818	13599.07036223	13887.95507729	1119.99702252	1229.07799727	1019.81330764	1004.99290435	24.48851190	-78.78491098	156.92072955
0.11000000	12804.83418649	13601.17211910	13888.59432883	1119.99961021	1229.02320608	1019.95050089	1004.98602267	24.54712630	-78.75594842	156.78061660
0.12000000	12807.70330565	13602.66828649	13889.64767158	1120.00104245	1228.86673554	1020.27206381	1005.10885711	24.61520942	-78.72577338	156.61947378
0.13000000	12811.04809831	13603.75419229	13891.26038075	1120.00139475	1228.63411874	1020.73408047	1005.33374472	24.69013680	-78.69495638	156.44359833
0.14000000	12814.60173714	13604.62516435	13893.57773151	1120.00103987	1228.36808112	1021.25986225	1005.60854169	24.76773581	-78.66424299	156.26221165
0.15000000	12818.09739482	13605.47653054	13896.74499906	1120.00035194	1228.11142924	1021.77256594	1005.88098873	24.84382651	-78.63437965	156.08454891
0.16000000	12821.26824400	13606.50361874	13900.90745858	1119.99969671	1227.90587568	1022.19721889	1006.10014488	24.91433891	-78.60609028	155.91958563
0.17000000	12823.84745736	13607.90175682	13906.21038527	1119.99924690	1227.76797168	1022.50187140	1006.24539086	24.97773249	-78.57958158	155.77032555
0.18000000	12825.57286509	13609.86259931	13912.79266463	1119.99898221	1227.68910714	1022.69759674	1006.32642909	25.03499614	-78.55454303	155.63380061
0.19000000	12826.36335931	13612.43499991	13920.54478318	1119.99887392	1227.65957796	1022.79733872	1006.35428030	25.08722875	-78.53064158	155.50678312
0.20000000	12826.37303792	13615.48230901	13929.03454843	1119.99889333	1227.66968007	1022.81404116	1006.33996525	25.13552919	-78.50754423	155.38604536
0.21000000	12825.77171804	13618.85547947	13937.80820265	1119.99901174	1227.70970940	1022.76064790	1006.29450467	25.18099633	-78.48491795	155.26835963
0.22000000	12824.72921678	13622.40546419	13946.41198815	1119.99920043	1227.76996186	1022.65010274	1006.22891932	25.22472904	-78.46242972	155.15049824
0.23000000	12823.41535124	13625.98321603	13954.39214724	1119.99943072	1227.84073338	1022.49534952	1006.15422994	25.26782621	-78.43974651	155.02923347
0.24000000	12821.99993855	13629.43968787	13961.29492220	1119.99967389	1227.91231986	1022.30933205	1006.08145728	25.31138671	-78.41653530	154.90133763
0.25000000	12820.65279580	13632.62583259	13966.66655533	1119.99990123	1227.97501725	1022.10499416	1006.02162207	25.35650942	-78.39246307	154.76358301
0.26000000	12819.54374012	13635.39260307	13970.05328894	1120.00008479	1228.01941159	1021.89512976	1005.98548311	25.40427401	-78.36720691	154.61280071
0.27000000	12818.84190545	13637.59088938	13971.00545407	1120.00021366	1228.04276238	1021.68908490	1005.97777396	25.45531848	-78.34067670	154.44717435
0.28000000	12818.66356985	13639.06672249	13969.38972974	1120.00029398	1228.04900248	1021.49275777	1005.99720303	25.50983919	-78.31301509	154.26624006
0.29000000	12819.03541696	13639.65789681	13965.60902677	1120.00033264	1228.04235493	1021.31189665	1006.04221674	25.56801329	-78.28437483	154.06959275
0.30000000	12819.97545181	13639.20140895	13960.11819819	1120.00033654	1228.02704276	1021.15224981	1006.11126151	25.63001791	-78.25490870	153.85682737
0.31000000	12821.50167944	13637.53425549	13953.37209706	1120.00031257	1228.00728899	1021.01956555	1006.20278376	25.69603021	-78.22476946	153.62753885
0.32000000	12823.63210489	13634.49343303	13945.82557644	1120.00026760	1227.98731665	1020.91959213	1006.31522991	25.76622733	-78.19410988	153.38132211
